PathFileType	4	(X/Y/Z)	F:\MotionCapture\20160217\3\Generated_files\EMG_Fprce_test06-Dynamic.trc
DataRate	CameraRate	NumFrames	NumMarkers	Units	OrigDataRate	OrigDataStartFrame	OrigNumFrames
120.00	120.00	       4	39	mm	120.00	329	       657
Frame#	Time	Top.Head			Front.Head			Rear.Head			R.Shoulder			R.Offset			R.Elbow			R.Wrist			L.Shoulder			L.Elbow			L.Wrist			R.ASIS			L.ASIS			V.Sacral			R.Thigh			R.Knee			R.Shank			R.Ankle			R.Heel			R.Toe			L.Thigh			L.Knee			L.Shank			L.Ankle			L.Heel			L.Toe			R1			R2			R3			R4			R5			R6			R7			L1			L2			L3			L4			L5			L6			L7			V_Mid_ASIS			V_Pelvis_Origin			V_R.Hip_JC			V_L.Hip_JC			V_R.Knee_JC			V_L.Knee_JC			V_R.Ankle_JC			V_L.Ankle_JC			V_Mid_Hip			V_Mid_Shoulder			V_R.Hand			V_L.Hand			V_R.Toe_Offset_Static			V_L.Toe_Offset_Static			V_R.Toe_Offset			V_L.Toe_Offset			
		X1	Y1	Z1	X2	Y2	Z2	X3	Y3	Z3	X4	Y4	Z4	X5	Y5	Z5	X6	Y6	Z6	X7	Y7	Z7	X8	Y8	Z8	X9	Y9	Z9	X10	Y10	Z10	X11	Y11	Z11	X12	Y12	Z12	X13	Y13	Z13	X14	Y14	Z14	X15	Y15	Z15	X16	Y16	Z16	X17	Y17	Z17	X18	Y18	Z18	X19	Y19	Z19	X20	Y20	Z20	X21	Y21	Z21	X22	Y22	Z22	X23	Y23	Z23	X24	Y24	Z24	X25	Y25	Z25	X26	Y26	Z26	X27	Y27	Z27	X28	Y28	Z28	X29	Y29	Z29	X30	Y30	Z30	X31	Y31	Z31	X32	Y32	Z32	X33	Y33	Z33	X34	Y34	Z34	X35	Y35	Z35	X36	Y36	Z36	X37	Y37	Z37	X38	Y38	Z38	X39	Y39	Z39	

329	2.733	-188.89973	139.43443	1676.99695	-305.38623	137.63409	1599.65271	-84.68262	129.77512	1602.73584	-142.90685	324.04861	1369.58215	-19.68592	59.84541	1221.11768	-163.35725	461.73813	1061.33521	-405.96249	441.79715	974.28693	-163.89449	-84.12035	1372.72754	-17.71914	-196.97173	1104.79871	38.15224	-259.17172	860.31915	-204.02196	279.61301	882.47504	-251.88332	-3.72890	901.35144	-10.51365	85.88503	895.08258	-131.66084	252.79033	503.58884	-8.00817	279.30566	430.58707	138.42589	200.07294	244.25380	298.67285	252.06248	158.14014	353.25461	182.26239	189.83189	230.92209	223.55661	35.50647	-388.47427	42.75728	650.47839	-389.36563	-15.67390	471.42749	-414.75339	63.88067	332.72287	-407.71387	-9.43022	60.25685	-339.15964	42.33956	40.48373	-543.80096	9.67154	45.93168	192.84386	202.25937	32.89764	219.86484	184.14932	42.98063	260.89233	163.15445	114.15010	316.59805	156.13487	158.27321	340.51706	227.41682	163.72081	304.17786	256.55960	91.27547	267.45581	261.49435	41.79553	-582.71674	37.13102	46.26019	-553.87988	47.16008	47.56116	-456.89954	84.67030	51.57176	-376.27594	78.83571	41.16185	-370.51956	5.93226	38.53306	-444.81760	-17.18098	33.16092	-507.76123	-23.76907	40.58878	
330	2.742	-202.24529	138.58473	1678.47949	-318.16736	136.56340	1601.50745	-97.83400	128.78203	1604.03979	-158.10501	323.16516	1371.33228	-34.77024	58.76537	1222.78528	-173.37106	458.83640	1061.58057	-414.43201	441.48526	969.44409	-178.30180	-85.26218	1373.99597	-35.94861	-197.31027	1103.26379	16.66903	-258.35883	857.64209	-219.61259	276.85522	883.09680	-266.13782	-6.44025	904.21405	-25.61478	85.61317	896.17975	-153.04395	254.39224	503.47659	-29.03266	281.45068	429.48563	121.47106	201.76114	246.47287	285.73575	252.94197	166.36658	336.58987	183.81647	202.23975	226.66084	223.43266	38.59156	-402.73129	39.90425	652.68408	-401.68091	-16.56989	470.84848	-424.24176	62.57246	331.85965	-409.22324	-9.61884	60.15400	-340.20532	42.85841	41.00210	-545.22229	7.92867	43.55100	192.13614	202.32568	32.35947	215.98970	184.24480	44.45592	249.79584	164.28217	120.92483	302.16504	158.01540	168.75461	326.56491	229.13248	174.87906	295.91702	257.43491	100.00091	262.98038	261.42361	46.05550	-587.30103	37.19673	43.84610	-555.82428	46.48238	46.49153	-459.16330	84.73592	48.48846	-377.24048	79.29367	40.87584	-371.28012	5.99700	38.69693	-445.11206	-17.69524	32.55647	-507.91766	-25.89729	39.30029	
331	2.750	-215.28168	137.65096	1680.40222	-331.26300	135.46718	1604.12598	-111.52261	127.75494	1605.20007	-172.89273	322.11771	1373.24365	-49.57573	57.94629	1224.23792	-183.89845	456.43393	1061.91333	-422.94336	440.81946	964.12390	-192.06114	-86.00786	1375.75122	-54.25098	-197.64795	1101.86182	-6.46692	-257.23376	855.11932	-235.87794	273.72870	884.74078	-279.73026	-9.45226	907.08575	-40.13175	85.32584	897.56268	-174.64439	256.26221	503.59549	-51.81520	282.96906	428.11853	104.23267	203.23090	248.92241	270.39880	254.10612	174.97749	319.39365	186.08629	215.27080	222.25133	223.78564	41.06807	-415.89752	37.04035	653.34393	-412.57138	-18.11997	469.73700	-432.92294	61.16441	330.80301	-409.62073	-9.71662	59.81655	-340.68549	43.11205	41.26727	-546.63202	6.63786	42.60085	188.50093	202.57452	31.57883	210.66243	184.82178	46.97455	238.10231	165.38132	128.54858	287.01877	159.07805	179.43146	310.17429	230.91112	187.27148	286.56711	258.55692	109.45969	255.91498	261.78702	50.91602	-587.89734	36.39542	40.47454	-557.08734	45.10038	44.86105	-461.02576	85.04729	46.35326	-377.79034	79.43719	40.68654	-371.55310	5.97849	38.80465	-445.39441	-17.86909	32.50023	-509.02368	-26.20637	38.54020	
332	2.758	-228.52342	136.72165	1682.66406	-345.66052	134.63972	1606.52563	-124.39666	127.18818	1607.34387	-187.68007	320.72205	1375.24170	-64.48352	57.13525	1226.41113	-194.19034	453.35385	1063.05542	-430.36212	440.14621	958.33490	-206.52310	-86.97762	1377.95764	-73.52271	-197.81671	1100.65625	-30.82995	-255.94817	852.43182	-251.98929	270.42166	885.94788	-293.75504	-12.25816	910.15424	-53.89433	85.11349	899.39972	-196.55171	257.34186	503.62781	-75.17424	283.48029	426.28015	85.98701	204.15141	251.31505	253.99863	255.31300	183.34306	299.43646	187.24341	227.60629	216.93004	224.93294	44.98905	-428.12039	33.64112	652.48193	-421.00107	-20.21562	468.54672	-441.28326	59.68339	329.53134	-410.49570	-9.50999	59.69068	-340.96487	43.12973	41.39395	-547.89392	7.18475	41.41941	184.71651	203.16428	30.58484	205.68117	186.71284	48.75385	224.11557	166.84052	135.26378	269.79779	159.49440	189.61923	292.99133	231.49577	199.03346	273.17490	259.86505	120.46518	249.18745	262.47473	57.12587	-589.57275	37.22692	38.59851	-557.61786	46.28988	43.79663	-460.97705	85.12550	46.21849	-377.95325	79.53239	40.69153	-372.20825	6.12025	38.83029	-445.61145	-17.76783	32.53840	-509.44730	-26.07752	38.35574	
